<?xml version="1.0" standalone="no"?>
<!DOCTYPE svg PUBLIC "-//W3C//DTD SVG 20010904//EN"
 "http://www.w3.org/TR/2001/REC-SVG-20010904/DTD/svg10.dtd">
<svg version="1.0" xmlns="http://www.w3.org/2000/svg"
 width="920.000000pt" height="920.000000pt" viewBox="0 0 920.000000 920.000000"
 preserveAspectRatio="xMidYMid meet">
<metadata>
Created by potrace 1.14, written by Peter Selinger 2001-2017
</metadata>
<g transform="translate(0.000000,920.000000) scale(0.100000,-0.100000)"
fill="#000000" stroke="none">
<path d="M5659 7906 c-2 -2 -38 -7 -79 -11 -41 -3 -86 -8 -100 -10 -14 -2 -47
-6 -75 -10 -41 -5 -278 -54 -335 -69 -133 -34 -402 -125 -456 -154 -11 -6 -46
-22 -79 -37 -128 -58 -174 -81 -275 -140 -189 -111 -379 -244 -498 -348 -149
-131 -251 -233 -362 -362 -43 -49 -106 -116 -141 -149 -35 -32 -102 -95 -149
-140 -47 -44 -114 -107 -148 -140 l-63 -58 -62 65 c-34 36 -173 179 -308 319
-136 139 -282 289 -324 333 -278 289 -354 361 -417 402 -109 70 -307 159 -399
179 -234 50 -440 38 -619 -36 -68 -28 -174 -87 -214 -120 -137 -111 -189 -164
-280 -285 -123 -165 -196 -318 -243 -515 -18 -78 -25 -326 -11 -420 30 -203
103 -392 222 -570 47 -70 90 -118 370 -404 322 -330 551 -568 554 -575 1 -4
-30 -38 -70 -76 -65 -60 -261 -246 -503 -477 -44 -42 -102 -97 -130 -123 -145
-136 -192 -186 -233 -248 -50 -78 -98 -179 -119 -252 -103 -353 -78 -675 77
-988 33 -66 130 -221 149 -237 3 -3 20 -23 36 -45 52 -70 177 -194 239 -239
176 -126 352 -179 571 -171 162 5 254 27 405 97 76 35 227 122 240 138 3 3 15
13 27 21 24 17 86 75 442 418 123 119 254 245 291 281 37 36 103 99 146 142
l80 76 221 -226 c121 -125 242 -254 269 -287 307 -385 704 -692 1134 -875 41
-18 93 -40 115 -50 111 -48 456 -148 605 -174 19 -3 46 -8 60 -11 14 -3 45 -8
70 -11 25 -3 52 -7 60 -9 8 -2 47 -7 85 -10 39 -4 96 -10 128 -14 79 -11 536
-11 617 -1 36 4 92 11 125 14 225 23 611 121 814 207 25 11 64 28 86 37 22 9
108 50 190 92 761 384 1354 1063 1628 1865 52 151 95 304 112 395 23 128 21
118 42 250 14 91 17 179 18 420 0 168 -4 334 -8 370 -14 108 -15 118 -22 162
-11 72 -15 92 -19 113 -3 11 -11 52 -20 90 -113 524 -376 1041 -741 1460 -115
132 -263 276 -385 375 -30 25 -57 47 -60 50 -17 19 -233 169 -325 226 -100 61
-291 161 -405 212 -222 98 -544 193 -765 227 -78 12 -86 13 -145 20 -30 4 -66
9 -80 12 -28 6 -555 14 -561 9z m368 -2340 c15 -3 46 -9 67 -12 51 -8 165 -48
236 -84 140 -71 267 -182 364 -318 63 -88 134 -250 151 -341 3 -14 8 -37 11
-51 14 -56 12 -267 -3 -336 -20 -95 -19 -92 -41 -154 -79 -224 -245 -418 -464
-539 -78 -43 -248 -98 -328 -106 -211 -22 -398 8 -564 91 -93 47 -69 25 -418
366 -161 156 -345 335 -410 398 l-119 116 143 139 c79 76 268 260 421 409 154
149 300 284 325 300 101 63 236 108 367 122 28 4 51 7 52 8 5 5 183 -2 210 -8z"/>
</g>
</svg>
